# xmcd
#
# Track frame offsets: 
#        150
#        26152
#        37512
#        51760
#        67290
#        83050
#        100035
#        117407
#        132832
#        149610
#        159725
#        166495
#        175077
#        179955
#        195477
#        200357
#        210925
#        232395
#        252462
#        265090
#        277295
#        296742
#        314295
#        332250
#
# Disc length: 4681 seconds
#
# Revision: 13
# Processed by: cddbd v1.5.2PL0 Copyright (c) Steve Scherf et al.
# Submitted via: ExactAudioCopy v1.0b3
#
DISCID=71124718
DTITLE=Bee Gees - One Night Only
DYEAR=1998
DGENRE=blues
TTITLE0=BGs,ONO01-Alone (Live)
TTITLE1=BGs,ONO02-Massachusetts (Live)
TTITLE2=BGs,ONO03-To Love Somebody (Live)
TTITLE3=BGs,ONO04-Words (Live)
TTITLE4=BGs,ONO05-Closer Than Close (Live)
TTITLE5=BGs,ONO06-Islands In The Stream (Live)
TTITLE6=BGs,ONO07-Our Love (Don't Throw It All Away) (Live)
TTITLE7=BGs,ONO08-More Than A Women (Live)
TTITLE8=BGs,ONO09-Lonely Days (Live)
TTITLE9=BGs,ONO10-New York Mining Disaster 1941 (Live)
TTITLE10=BGs,ONO11-I Can't See Nobody (Live)
TTITLE11=BGs,ONO12-And The Sun Will Shine (Live)
TTITLE12=BGs,ONO13-Nights On Broadway (Live)
TTITLE13=BGs,ONO14-How Can You Mend A Broken Heart (Live)
TTITLE14=BGs,ONO15-Heartbreaker (Live)
TTITLE15=BGs,ONO16-Guilty (Live)
TTITLE16=BGs,ONO17-Immortality Featuring Celine Dion (Live)
TTITLE17=BGs,ONO18-Tragedy (Live)
TTITLE18=BGs,ONO19-I Started A Joke (Live)
TTITLE19=BGs,ONO20-Grease (Live)
TTITLE20=BGs,ONO21-Jive Talkin' (Live)
TTITLE21=BGs,ONO22-How Deep Is Your Love (Live)
TTITLE22=BGs,ONO23-Stayin' Alive (Live)
TTITLE23=BGs,ONO24-You Should Be Dancing (Live)
EXTD=Live
EXTT0=
EXTT1=
EXTT2=
EXTT3=
EXTT4=
EXTT5=
EXTT6=
EXTT7=
EXTT8=
EXTT9=
EXTT10=
EXTT11=
EXTT12=
EXTT13=
EXTT14=
EXTT15=
EXTT16=
EXTT17=
EXTT18=
EXTT19=
EXTT20=
EXTT21=
EXTT22=
EXTT23=
PLAYORDER=
